<svg width="64" height="40" viewBox="0 0 64 40" fill="none" xmlns="http://www.w3.org/2000/svg"><path d="M57.498 0H6.50287C3.2372 0 0.589844 2.66688 0.589844 5.95664V34.0434C0.589844 37.3331 3.2372 40 6.50287 40H57.498C60.7636 40 63.411 37.3331 63.411 34.0434V5.95664C63.411 2.66688 60.7636 0 57.498 0Z" fill="#E6E6E6"></path><path d="M46.9602 23.6698C47.0755 23.7981 47.1633 23.9489 47.2183 24.1129C47.2732 24.2768 47.2941 24.4504 47.2796 24.6228C47.2796 25.5973 46.6752 26.0524 45.5932 26.0524H43.5035V25.0851H45.5872C45.7422 25.1039 45.8986 25.064 46.026 24.9731C46.0662 24.9353 46.0982 24.8895 46.1199 24.8387C46.1417 24.7879 46.1528 24.733 46.1525 24.6776C46.1536 24.621 46.1425 24.5648 46.1198 24.5129C46.0971 24.4611 46.0635 24.4148 46.0213 24.3774C45.91 24.2989 45.7744 24.2634 45.6393 24.2774C44.6341 24.2428 43.377 24.3083 43.377 22.8752C43.377 22.2176 43.7861 21.5254 44.9143 21.5254H47.0667V22.4904H45.0953C44.9468 22.4725 44.7965 22.5012 44.6648 22.5726C44.6107 22.6067 44.567 22.6552 44.5386 22.7129C44.5102 22.7705 44.4982 22.8349 44.504 22.899C44.5023 22.9733 44.5244 23.0462 44.567 23.1069C44.6096 23.1676 44.6704 23.2129 44.7405 23.2361C44.8757 23.2772 45.0169 23.2945 45.158 23.2874L45.7363 23.3029C46.1758 23.2635 46.6136 23.3947 46.9602 23.6698Z" fill="#2E77BC"></path><path d="M51.0237 23.6698C51.139 23.7981 51.2268 23.9489 51.2817 24.1129C51.3367 24.2768 51.3575 24.4504 51.343 24.6228C51.343 25.5973 50.7387 26.0524 49.6566 26.0524H47.567V25.0851H49.6507C49.8057 25.1039 49.9621 25.064 50.0895 24.9731C50.1296 24.9353 50.1616 24.8895 50.1834 24.8387C50.2052 24.7879 50.2163 24.733 50.216 24.6776C50.2171 24.621 50.2059 24.5648 50.1833 24.5129C50.1606 24.4611 50.127 24.4148 50.0847 24.3774C49.9735 24.2989 49.8379 24.2634 49.7027 24.2774C48.6975 24.2428 47.4404 24.3083 47.4404 22.8752C47.4404 22.2176 47.8496 21.5254 48.9778 21.5254H51.1301V22.4904H49.1587C49.0103 22.4725 48.8599 22.5012 48.7283 22.5726C48.6741 22.6067 48.6304 22.6552 48.602 22.7129C48.5736 22.7705 48.5617 22.8349 48.5674 22.899C48.5658 22.9733 48.5879 23.0462 48.6305 23.1069C48.673 23.1676 48.7339 23.2129 48.804 23.2361C48.9392 23.2772 49.0804 23.2945 49.2214 23.2874L49.7997 23.3029C50.2392 23.2635 50.6771 23.3947 51.0237 23.6698Z" fill="#2E77BC"></path><path d="M39.2764 21.5254H42.8597V22.463H40.3407V23.2874H42.7982V24.2118H40.3407V25.1137H42.8549V26.0524H39.2764V21.5254Z" fill="#2E77BC"></path><path d="M35.4381 26.0522H34.3584V21.5252H36.8419C37.2823 21.4853 37.7255 21.5591 38.1297 21.7396C38.3076 21.8365 38.4541 21.9827 38.552 22.1609C38.6499 22.3391 38.695 22.5419 38.682 22.7451C38.6905 23 38.6223 23.2515 38.4864 23.4666C38.3505 23.6818 38.1532 23.8505 37.9204 23.9507C38.1281 24.0251 38.3106 24.1573 38.4467 24.332C38.5949 24.5802 38.6573 24.871 38.6241 25.1587V26.0522H37.5514V25.4899C37.5514 25.4637 37.5514 25.4351 37.5514 25.4065C37.5908 25.126 37.5286 24.8406 37.3764 24.6024C37.2652 24.5173 37.1382 24.4557 37.0029 24.4211C36.8676 24.3865 36.7268 24.3797 36.5888 24.4011H35.4381V26.0522ZM35.4381 22.4568V23.4754H36.739C36.9211 23.4921 37.1044 23.4596 37.27 23.3813C37.341 23.336 37.3991 23.2728 37.4385 23.198C37.4779 23.1233 37.4972 23.0394 37.4947 22.9548C37.5004 22.8722 37.4826 22.7897 37.4431 22.7171C37.4037 22.6444 37.3445 22.5847 37.2723 22.545C37.1109 22.4743 36.9343 22.4461 36.7591 22.4628L35.4381 22.4568Z" fill="#2E77BC"></path><path d="M25.8648 26.0524H21.6074V21.5254H25.9263L27.2473 23.011L28.6132 21.5254H32.0427C33.2596 21.5254 33.8521 22.0138 33.8521 23.0181C33.8521 24.0224 33.2419 24.5371 31.9836 24.5371H30.6437V26.0524H28.5576L27.2354 24.5573L25.8648 26.0524ZM29.5746 22.0115L27.9261 23.7984L29.5746 25.645V22.0115ZM22.6718 24.2106V25.1125H25.3173L26.5436 23.783L25.3693 22.463H22.6718V23.2874H25.037V24.2118L22.6718 24.2106ZM30.6437 22.463V23.6174H32.0321C32.4566 23.6174 32.7014 23.3993 32.7014 23.0217C32.7014 22.5618 32.3467 22.4653 32.0451 22.4653L30.6437 22.463Z" fill="#2E77BC"></path><path d="M44.9397 18.2586H42.7483L42.3308 17.2483H40.0993L39.6936 18.2586H38.4353C37.8742 18.2877 37.3216 18.1108 36.8802 17.7606C36.6719 17.5276 36.5134 17.2539 36.4147 16.9565C36.316 16.6591 36.2792 16.3444 36.3066 16.032C36.2798 15.7124 36.3173 15.3907 36.4169 15.0861C36.5165 14.7815 36.6761 14.5003 36.8861 14.2593C37.1079 14.0644 37.3668 13.9171 37.647 13.8264C37.9272 13.7357 38.2228 13.7034 38.5157 13.7315H39.5553V14.7025H38.5382C38.3892 14.6832 38.2377 14.6973 38.0947 14.7436C37.9516 14.7899 37.8204 14.8674 37.7104 14.9705C37.4867 15.2625 37.3773 15.6271 37.4029 15.9951C37.3701 16.3741 37.4751 16.7522 37.6986 17.0589C37.9081 17.233 38.1764 17.3184 38.4472 17.2972H38.9297L40.4458 13.7315H42.0541L43.8694 18.0203V13.7315H45.5038L47.3959 16.8874V13.7315H48.4958V18.2586H46.9702L44.9397 14.8621V18.2586ZM41.192 14.5011L40.4611 16.3072H41.9264L41.192 14.5011Z" fill="#2E77BC"></path><path d="M34.6846 13.7314H35.7797V18.2585H34.6846V13.7314Z" fill="#2E77BC"></path><path d="M30.8228 18.258H29.749V13.731H32.2195C32.6645 13.685 33.1137 13.7598 33.5203 13.9478C33.6962 14.0457 33.8406 14.192 33.9368 14.3697C34.0329 14.5474 34.0768 14.749 34.0632 14.9509C34.0718 15.2055 34.0043 15.4568 33.8693 15.6722C33.7343 15.8877 33.5382 16.0572 33.3063 16.1589C33.5136 16.2364 33.6968 16.368 33.8373 16.5401C33.9871 16.7904 34.0495 17.0839 34.0147 17.374V18.258H32.9314V17.6874C32.9314 17.66 32.9314 17.6302 32.9314 17.6004C32.9692 17.3232 32.9089 17.0415 32.7611 16.8046C32.6499 16.7221 32.5236 16.6624 32.3894 16.6291C32.2553 16.5958 32.116 16.5894 31.9794 16.6104H30.8228V18.258ZM30.8228 14.6697V15.6764H32.1237C32.3058 15.6951 32.4895 15.663 32.6547 15.5835C32.7267 15.5401 32.7856 15.4779 32.8252 15.4034C32.8648 15.3289 32.8835 15.2449 32.8794 15.1606C32.8857 15.0783 32.8677 14.9959 32.8277 14.9239C32.7877 14.8518 32.7275 14.7932 32.6547 14.7555C32.4938 14.6889 32.3196 14.6611 32.1462 14.6745L30.8228 14.6697Z" fill="#2E77BC"></path><path d="M29.0048 18.2585H25.418V13.7314H29.0048V14.675H26.4918V15.491H28.9445V16.4203H26.4918V17.3245H29.0048V18.2585Z" fill="#2E77BC"></path><path d="M19.4518 18.2585H17.2675L16.8548 17.2482H14.6185L14.2022 18.2585H13.0361L14.959 13.7314H16.5544L18.3815 18.0202V13.7314H20.1318L21.5391 16.8051L22.8293 13.7314H24.6174V18.2585H23.5164V14.7107L21.9553 18.2585H21.0093L19.4518 14.7107V18.2585ZM15.7325 14.501L15.0016 16.3071H16.4657L15.7325 14.501Z" fill="#2E77BC"></path></svg>