<svg width="63" height="40" viewBox="0 0 63 40" fill="none" xmlns="http://www.w3.org/2000/svg"><path d="M57.0878 0H6.09271C2.82704 0 0.179688 2.66688 0.179688 5.95664V34.0434C0.179688 37.3331 2.82704 40 6.09271 40H57.0878C60.3534 40 63.0008 37.3331 63.0008 34.0434V5.95664C63.0008 2.66688 60.3534 0 57.0878 0Z" fill="#E6E6E6"></path><path d="M13.1562 8.95605H15.1667V28.165H13.1562V8.95605Z" fill="#333333"></path><path d="M15.7998 8.95605H16.423V28.165H15.7998V8.95605Z" fill="#333333"></path><path d="M16.9648 8.95605H18.08V28.165H16.9648V8.95605Z" fill="#333333"></path><path d="M19.1553 8.95605H19.7785V28.165H19.1553V8.95605Z" fill="#333333"></path><path d="M20.0488 8.95605H20.529V28.165H20.0488V8.95605Z" fill="#333333"></path><path d="M11.6279 8.95605H12.2512V28.165H11.6279V8.95605Z" fill="#333333"></path><path d="M10.2549 8.95605H11.3701V28.165H10.2549V8.95605Z" fill="#333333"></path><path d="M23.8574 8.95605H25.8678V28.165H23.8574V8.95605Z" fill="#333333"></path><path d="M26.5 8.95605H27.122V28.165H26.5V8.95605Z" fill="#333333"></path><path d="M27.665 8.95605H28.7802V28.165H27.665V8.95605Z" fill="#333333"></path><path d="M29.8555 8.95605H30.4787V28.165H29.8555V8.95605Z" fill="#333333"></path><path d="M30.749 8.95605H31.2292V28.165H30.749V8.95605Z" fill="#333333"></path><path d="M22.3281 8.95605H22.9514V28.165H22.3281V8.95605Z" fill="#333333"></path><path d="M20.9551 8.95605H22.0702V28.165H20.9551V8.95605Z" fill="#333333"></path><path d="M32.0186 8.95605H33.1337V28.165H32.0186V8.95605Z" fill="#333333"></path><path d="M34.209 8.95605H34.8298V28.165H34.209V8.95605Z" fill="#333333"></path><path d="M35.1016 8.95605H35.5829V28.165H35.1016V8.95605Z" fill="#333333"></path><path d="M37.3828 8.95605H38.0049V28.165H37.3828V8.95605Z" fill="#333333"></path><path d="M36.0088 8.95605H37.124V28.165H36.0088V8.95605Z" fill="#333333"></path><path d="M38.834 8.95605H39.4561V28.165H38.834V8.95605Z" fill="#333333"></path><path d="M39.7266 8.95605H40.2067V28.165H39.7266V8.95605Z" fill="#333333"></path><path d="M42.0068 8.95605H42.6289V28.165H42.0068V8.95605Z" fill="#333333"></path><path d="M40.6328 8.95605H41.748V28.165H40.6328V8.95605Z" fill="#333333"></path><path d="M43.1729 8.95605H45.1833V28.165H43.1729V8.95605Z" fill="#333333"></path><path d="M45.8145 8.95605H46.4377V28.165H45.8145V8.95605Z" fill="#333333"></path><path d="M46.9805 8.95605H48.0957V28.165H46.9805V8.95605Z" fill="#333333"></path><path d="M49.1709 8.95605H49.7942V28.165H49.1709V8.95605Z" fill="#333333"></path><path d="M50.0635 8.95605H50.5436V28.165H50.0635V8.95605Z" fill="#333333"></path><path d="M51.334 8.95605H52.448V28.165H51.334V8.95605Z" fill="#333333"></path><path d="M11.5312 30.6375H51.0457V17.4424H11.5312V30.6375Z" fill="#E6E6E6"></path><path d="M41.4828 26.718C40.1417 26.718 39.2358 25.61 39.2358 23.9612C39.2358 22.3124 40.1204 21.251 41.4828 21.251C42.8452 21.251 43.7167 22.3148 43.7167 23.9612C43.7167 25.6077 42.8203 26.718 41.4828 26.718ZM24.1729 26.718C22.8318 26.718 21.926 25.61 21.926 23.9612C21.926 22.3124 22.8106 21.251 24.1729 21.251C25.5353 21.251 26.4081 22.3148 26.4081 23.9612C26.4081 25.6077 25.5045 26.718 24.1729 26.718ZM24.1729 21.8335C23.2268 21.8335 22.6166 22.6675 22.6166 23.9565C22.6166 25.2753 23.2268 26.1271 24.1729 26.1271C25.119 26.1271 25.7221 25.2753 25.7221 23.9565C25.7221 22.671 25.1143 21.8383 24.1729 21.8383V21.8335ZM37.2538 26.6215H36.5915V21.9098H35.0033V21.3475H38.842V21.9098H37.2538V26.6203V26.6215ZM34.4285 26.6215H31.3324V21.3475H34.3493V21.9098H32.0018V23.5657H33.9815V24.1364H32.0018V26.0508H34.4273V26.6203L34.4285 26.6215ZM30.4467 26.6215H27.4901V21.3475H28.1607V26.0508H30.4431V26.6203L30.4467 26.6215ZM19.258 26.6215H17.5811V21.3475H19.1374C20.32 21.3475 20.9408 21.7918 20.9408 22.6341C20.9465 22.9038 20.8576 23.167 20.6897 23.3772C20.5219 23.5875 20.2859 23.7314 20.0231 23.7837V23.8159C20.8167 23.935 21.2365 24.377 21.2365 25.0775C21.2365 26.0592 20.5151 26.6215 19.2568 26.6215H19.258ZM18.2516 24.0971V26.0901H19.161C20.0906 26.0901 20.5802 25.7327 20.5802 25.0454C20.5802 24.4163 20.1071 24.0923 19.161 24.0923L18.2516 24.0971ZM18.2516 21.8776V23.5991H19.025C19.873 23.5991 20.2857 23.3013 20.2857 22.6901C20.2857 22.1361 19.8954 21.8776 19.057 21.8776H18.2516Z" fill="#333333"></path><path d="M41.4831 26.1267C42.4173 26.1267 43.0311 25.2749 43.0311 23.9561C43.0311 22.6373 42.4173 21.8379 41.4831 21.8379C40.5488 21.8379 39.9268 22.6504 39.9268 23.9608C39.9268 25.2713 40.5417 26.1267 41.4831 26.1267Z" fill="#E6E6E6"></path></svg>