<svg width="552" height="470" viewBox="0 0 552 470" fill="none" xmlns="http://www.w3.org/2000/svg">
<path d="M8.65236 234.278C8.65236 208.382 29.6455 187.389 55.5419 187.389H496.458C522.354 187.389 543.348 208.382 543.348 234.278V460.438H8.65236V234.278Z" fill="url(#paint0_linear_10996_17147)" stroke="url(#paint1_linear_10996_17147)" stroke-width="17.3047"/>
<path d="M36.4864 234.084C36.4864 222.157 46.1554 212.488 58.0826 212.488H492.147C504.074 212.488 513.743 222.157 513.743 234.084V462.536H36.4864V234.084Z" stroke="url(#paint2_linear_10996_17147)" stroke-width="2.09008"/>
<path d="M230.464 237.648C228.047 237.72 226.063 239.58 225.835 241.987L215.33 352.797C214.959 356.71 219.197 359.382 222.568 357.36L272.702 327.289C274.22 326.379 276.116 326.379 277.634 327.289L328.023 357.513C331.345 359.506 335.537 356.938 335.271 353.073L327.454 239.341" fill="#00875F"/>
<path d="M234.331 242.654C232.123 242.718 230.31 244.371 230.102 246.508L220.502 344.928C220.163 348.404 224.036 350.777 227.116 348.981L272.928 322.272C274.315 321.464 276.048 321.464 277.434 322.272L323.479 349.117C326.515 350.887 330.345 348.607 330.103 345.174L322.96 244.158" fill="url(#paint3_linear_10996_17147)"/>
<g style="mix-blend-mode:lighten" opacity="0.5">
<path d="M453.552 200.909L351.902 176.368L452.842 149.049L433.356 91.7684L336.695 131.669L402.299 50.2363L352.867 15.3459L298.118 104.437L303.326 0L242.827 0.833859L250.902 105.088L193.732 17.533L145.273 53.7693L213.086 133.366L115.371 96.1425L97.4648 153.935L199.115 178.468L98.1744 205.788L117.66 263.068L214.322 223.174L148.718 304.607L198.15 339.49L252.899 250.399L247.691 354.836L308.19 354.01L300.114 249.748L357.292 337.303L405.744 301.074L337.931 221.47L435.646 258.701L453.552 200.909Z" fill="url(#paint4_radial_10996_17147)"/>
</g>
<mask id="mask0_10996_17147" style="mask-type:alpha" maskUnits="userSpaceOnUse" x="215" y="237" width="121" height="122">
<path d="M230.464 237.648C228.048 237.721 226.064 239.581 225.836 241.987L215.331 352.797C214.96 356.71 219.198 359.382 222.569 357.36L272.703 327.289C274.221 326.379 276.117 326.379 277.635 327.289L328.024 357.513C331.346 359.506 335.538 356.939 335.272 353.074L327.455 239.341" fill="#8257E6"/>
</mask>
<g mask="url(#mask0_10996_17147)">
<rect x="254.78" y="251.526" width="41.0369" height="87.3022" fill="#00875F"/>
<g style="mix-blend-mode:multiply" opacity="0.3">
<path d="M286.407 87.6884C295.586 80.0769 309.432 83.805 313.633 94.9893C316.433 102.756 324.523 107.416 332.768 106.018C344.437 103.999 354.704 114.096 352.682 125.901C351.282 134.134 355.949 142.056 363.728 145.008C374.929 149.046 378.663 163.027 371.04 172.192C365.75 178.56 365.75 187.881 371.04 194.249C378.663 203.414 374.929 217.239 363.728 221.433C355.949 224.229 351.282 232.307 352.682 240.54C354.704 252.19 344.592 262.442 332.768 260.423C324.523 259.025 316.589 263.685 313.633 271.452C309.588 282.636 295.586 286.364 286.407 278.753C280.029 273.471 270.694 273.471 264.316 278.753C255.137 286.364 241.291 282.636 237.09 271.452C234.29 263.685 226.2 259.025 217.955 260.423C206.287 262.442 196.019 252.345 198.041 240.54C199.442 232.307 194.774 224.385 186.996 221.433C176.105 216.929 172.372 202.948 179.995 193.939C185.284 187.57 185.284 178.25 179.995 171.881C172.372 162.716 176.105 148.891 187.151 144.852C194.93 142.056 199.597 133.979 198.197 125.746C196.175 114.096 206.442 103.843 218.11 105.863C226.356 107.261 234.29 102.601 237.246 94.8339C241.291 83.805 255.137 80.0769 264.316 87.6884C270.694 92.9699 280.029 92.9699 286.407 87.6884Z" fill="#505059"/>
</g>
</g>
<path d="M285.716 87.9511C294.313 80.8226 307.28 84.3141 311.214 94.7887C313.837 102.063 321.414 106.427 329.136 105.118C340.063 103.227 349.68 112.683 347.786 123.739C346.474 131.45 350.845 138.869 358.131 141.633C368.621 145.416 372.118 158.509 364.979 167.093C360.025 173.057 360.025 181.786 364.979 187.751C372.118 196.334 368.621 209.282 358.131 213.21C350.845 215.829 346.474 223.394 347.786 231.104C349.68 242.015 340.209 251.617 329.136 249.726C321.414 248.416 313.983 252.781 311.214 260.055C307.426 270.529 294.313 274.021 285.716 266.892C279.743 261.946 271 261.946 265.027 266.892C256.43 274.021 243.463 270.529 239.529 260.055C236.906 252.781 229.329 248.416 221.607 249.726C210.679 251.617 201.063 242.161 202.957 231.104C204.268 223.394 199.897 215.974 192.612 213.21C182.413 208.991 178.916 195.898 186.056 187.46C191.01 181.495 191.01 172.766 186.056 166.802C178.916 158.218 182.413 145.271 192.758 141.488C200.043 138.869 204.414 131.304 203.103 123.594C201.209 112.683 210.825 103.081 221.753 104.972C229.475 106.282 236.906 101.917 239.674 94.6432C243.463 84.3141 256.43 80.8226 265.027 87.9511C271 92.8975 279.743 92.8975 285.716 87.9511Z" fill="white"/>
<path d="M284.961 94.548C292.923 87.9451 304.935 91.1792 308.579 100.881C311.008 107.619 318.026 111.662 325.179 110.449C335.3 108.697 344.208 117.456 342.453 127.697C341.239 134.839 345.287 141.712 352.035 144.272C361.752 147.776 364.991 159.903 358.378 167.854C353.79 173.379 353.79 181.464 358.378 186.989C364.991 194.939 361.752 206.932 352.035 210.571C345.287 212.996 341.239 220.003 342.453 227.145C344.208 237.252 335.435 246.146 325.179 244.394C318.026 243.181 311.143 247.224 308.579 253.961C305.07 263.664 292.923 266.898 284.961 260.295C279.427 255.713 271.33 255.713 265.796 260.295C257.834 266.898 245.823 263.664 242.179 253.961C239.749 247.224 232.731 243.181 225.579 244.394C215.457 246.146 206.549 237.387 208.304 227.145C209.518 220.003 205.47 213.131 198.722 210.571C189.275 206.663 186.036 194.535 192.649 186.719C197.237 181.195 197.237 173.109 192.649 167.584C186.036 159.634 189.275 147.641 198.857 144.137C205.605 141.712 209.653 134.705 208.439 127.563C206.684 117.456 215.592 108.562 225.714 110.314C232.866 111.527 239.749 107.484 242.314 100.747C245.823 91.1792 257.834 87.9451 265.796 94.548C271.33 99.1297 279.427 99.1297 284.961 94.548Z" fill="url(#paint5_linear_10996_17147)"/>
<circle cx="275.51" cy="178.963" r="66.041" fill="#00291D"/>
<ellipse opacity="0.8" cx="275.51" cy="178.963" rx="66.041" ry="60.8039" transform="rotate(-38.676 275.51 178.963)" fill="url(#paint6_linear_10996_17147)"/>
<path d="M186.16 267.694L183.998 273.572L180.222 268.572L174.351 266.406L179.342 262.632L181.504 256.755L185.277 261.747L191.149 263.913L186.16 267.694Z" fill="white"/>
<path d="M363.92 95.0402L360.503 100.288L357.936 94.5734L352.695 91.1541L358.4 88.5861L361.818 83.338L364.385 89.0451L369.626 92.4645L363.92 95.0402Z" fill="#00B37E"/>
<path d="M373.512 77.895L371.934 80.0594L370.967 77.5664L368.808 75.9971L371.295 75.0248L372.869 72.8641L373.841 75.3534L375.999 76.9227L373.512 77.895Z" fill="white"/>
<path d="M383.251 304.375L384.32 308.94L379.908 307.376L375.361 308.448L376.912 304.037L375.843 299.483L380.255 301.036L384.802 299.965L383.251 304.375Z" fill="#00B37E"/>
<path d="M353.091 298.454C353.826 298.879 354.766 298.627 355.191 297.891C355.615 297.155 355.363 296.214 354.628 295.789C353.893 295.365 352.953 295.617 352.529 296.352C352.104 297.088 352.356 298.029 353.091 298.454Z" fill="white"/>
<path d="M370.943 274.472C372.417 275.324 374.302 274.819 375.153 273.343C376.004 271.867 375.499 269.98 374.025 269.128C372.551 268.276 370.666 268.781 369.815 270.257C368.964 271.733 369.469 273.62 370.943 274.472Z" fill="white"/>
<path d="M173.677 306.37C175.151 307.222 177.036 306.716 177.887 305.241C178.738 303.765 178.232 301.878 176.758 301.026C175.284 300.173 173.399 300.679 172.548 302.155C171.697 303.63 172.202 305.518 173.677 306.37Z" fill="#00B37E"/>
<path d="M299.041 151.094L291.553 149.986C291.331 149.942 291.11 150.031 291.021 150.119L287.831 154.284C287.61 154.55 287.565 154.904 287.654 155.215C287.742 155.525 287.477 155.791 287.166 155.746L284.552 155.17C284.154 155.082 283.711 155.215 283.445 155.569L273.077 168.861C272.9 169.127 272.545 169.215 272.235 169.082L268.292 167.31C267.938 167.133 267.539 167.177 267.229 167.399L265.235 168.772C264.925 168.994 264.482 169.038 264.127 168.861L263.153 168.373C262.532 168.063 261.779 168.418 261.602 169.082L260.893 172.228C260.716 172.981 261.026 173.734 261.69 174.133L263.197 175.064L268.026 178.032L270.374 179.494C271.039 179.893 271.881 179.804 272.457 179.317L276.4 175.861C276.71 175.595 277.198 175.507 277.552 175.728L278.748 176.349C279.147 176.57 279.634 176.481 279.945 176.171L281.938 174.31C282.248 174 282.736 173.956 283.09 174.133L286.059 175.507C286.502 175.728 287.034 175.595 287.344 175.197L288.717 173.424L299.129 160.088C299.617 159.468 299.306 158.537 298.509 158.36L296.205 157.829C295.718 157.74 295.496 157.12 295.85 156.765L299.439 152.29C299.794 151.759 299.572 151.183 299.041 151.094Z" fill="white"/>
<path d="M264.698 177.943C264.476 177.811 264.255 178.032 264.343 178.254L265.451 181.178C265.54 181.399 265.54 181.621 265.495 181.842L264.52 185.653C264.476 185.919 264.565 186.184 264.742 186.317L267.533 188.488C267.799 188.666 268.154 188.666 268.375 188.444L271.299 185.874C271.477 185.741 271.698 185.653 271.875 185.608L275.198 185.254C275.42 185.21 275.508 184.9 275.287 184.767L264.698 177.943Z" fill="white"/>
<path d="M263.726 187.778C263.549 187.645 263.283 187.601 263.062 187.69L260.713 188.842C260.58 188.886 260.492 189.019 260.403 189.152L255.397 201.513C255.397 201.557 255.397 201.557 255.397 201.602C255.441 201.646 255.485 201.69 255.574 201.69L256.726 201.247C256.77 201.247 256.814 201.247 256.859 201.247C256.903 201.292 256.947 201.38 256.903 201.425L253.314 207.317C253.226 207.45 253.403 207.583 253.491 207.45L266.473 194.424C266.606 194.291 266.65 194.158 266.695 193.981L266.96 190.614C266.96 190.392 266.872 190.215 266.739 190.082L263.726 187.778Z" fill="white"/>
<defs>
<linearGradient id="paint0_linear_10996_17147" x1="275.59" y1="178.737" x2="198.677" y2="447.042" gradientUnits="userSpaceOnUse">
<stop offset="0.00663513" stop-color="#00291D"/>
<stop offset="0.9862" stop-color="#121214" stop-opacity="0"/>
</linearGradient>
<linearGradient id="paint1_linear_10996_17147" x1="276" y1="178.737" x2="276" y2="441.203" gradientUnits="userSpaceOnUse">
<stop stop-color="#015F43"/>
<stop offset="1" stop-color="#00B37E" stop-opacity="0"/>
</linearGradient>
<linearGradient id="paint2_linear_10996_17147" x1="275.115" y1="211.443" x2="275.115" y2="439.364" gradientUnits="userSpaceOnUse">
<stop stop-color="#015F43"/>
<stop offset="1" stop-color="#00B37E" stop-opacity="0"/>
</linearGradient>
<linearGradient id="paint3_linear_10996_17147" x1="275.298" y1="240.192" x2="275.298" y2="349.731" gradientUnits="userSpaceOnUse">
<stop stop-color="#00B37E"/>
<stop offset="1" stop-color="#00B37E" stop-opacity="0.46"/>
</linearGradient>
<radialGradient id="paint4_radial_10996_17147" cx="0" cy="0" r="1" gradientUnits="userSpaceOnUse" gradientTransform="translate(275.508 177.418) rotate(90) scale(154.694 155.24)">
<stop offset="0.27175" stop-color="#00B37E"/>
<stop offset="1" stop-color="#101C22" stop-opacity="0"/>
</radialGradient>
<linearGradient id="paint5_linear_10996_17147" x1="275.507" y1="91.078" x2="275.507" y2="263.759" gradientUnits="userSpaceOnUse">
<stop stop-color="#E1E1E6"/>
<stop offset="1" stop-color="#E1E1E6" stop-opacity="0.4"/>
</linearGradient>
<linearGradient id="paint6_linear_10996_17147" x1="275.51" y1="118.159" x2="275.51" y2="239.767" gradientUnits="userSpaceOnUse">
<stop stop-color="#00B37E" stop-opacity="0.4"/>
<stop offset="1" stop-color="#00B37E"/>
</linearGradient>
</defs>
</svg>
