<svg width="63" height="40" viewBox="0 0 63 40" fill="none" xmlns="http://www.w3.org/2000/svg"><path d="M56.9081 0H5.91302C2.64735 0 0 2.66688 0 5.95664V34.0434C0 37.3331 2.64735 40 5.91302 40H56.9081C60.1738 40 62.8212 37.3331 62.8212 34.0434V5.95664C62.8212 2.66688 60.1738 0 56.9081 0Z" fill="#E6E6E6"></path><path d="M37.396 10.5557H26.5713V29.3366H37.396V10.5557Z" fill="#FF5A00"></path><path d="M27.2922 19.9459C27.2922 16.1302 29.1497 12.7436 32 10.5554C29.9023 8.96263 27.2562 8 24.3699 8C17.5324 8 12 13.3428 12 19.9459C12 26.549 17.5324 31.8918 24.3699 31.8918C27.2562 31.8918 29.9023 30.9291 32 29.3363C29.1457 27.1791 27.2922 23.7616 27.2922 19.9459Z" fill="#EB001B"></path><path d="M52 19.9459C52 26.549 46.4676 31.8918 39.6301 31.8918C36.7438 31.8918 34.0977 30.9291 32 29.3363C34.8863 27.1443 36.7078 23.7616 36.7078 19.9459C36.7078 16.1302 34.8503 12.7436 32 10.5554C34.0937 8.96263 36.7398 8 39.6261 8C46.4676 8 52 13.3776 52 19.9459Z" fill="#F79E1B"></path></svg>