<svg width="63" height="40" viewBox="0 0 63 40" fill="none" xmlns="http://www.w3.org/2000/svg">
<path d="M56.9082 0H5.91303C2.64735 0 0 2.66688 0 5.95664V34.0434C0 37.3331 2.64735 40 5.91303 40H56.9082C60.1738 40 62.8212 37.3331 62.8212 34.0434V5.95664C62.8212 2.66688 60.1738 0 56.9082 0Z" fill="#E6E6E6"/>
<path d="M51.5131 17.3598L50.5528 23.4547C50.5485 23.4825 50.5503 23.5109 50.558 23.538C50.5656 23.5651 50.579 23.5902 50.5972 23.6116C50.6154 23.633 50.638 23.6502 50.6634 23.6619C50.6888 23.6737 50.7164 23.6798 50.7444 23.6798H51.7106C51.7876 23.68 51.8622 23.6525 51.9209 23.6023C51.9796 23.5521 52.0187 23.4824 52.031 23.4058L52.9771 17.4206C52.9814 17.3927 52.9796 17.3641 52.9719 17.3369C52.9641 17.3098 52.9506 17.2846 52.9323 17.2632C52.914 17.2418 52.8913 17.2247 52.8657 17.213C52.8402 17.2013 52.8124 17.1953 52.7844 17.1954H51.7058C51.6595 17.1951 51.6146 17.2115 51.5792 17.2417C51.5439 17.2719 51.5204 17.3138 51.5131 17.3598" fill="#2890C3"/>
<path d="M46.7673 23.7836C46.5055 23.8005 46.2432 23.7583 45.9997 23.66C45.7562 23.5617 45.5377 23.4097 45.36 23.2153C45.1705 22.9768 45.035 22.6996 44.9629 22.4028C44.8908 22.1061 44.8838 21.7971 44.9425 21.4974C45.0225 20.8839 45.3183 20.3196 45.7762 19.9071C46.2341 19.4946 46.8236 19.2613 47.4378 19.2494C47.6789 19.2192 47.9238 19.2457 48.153 19.327C48.3822 19.4082 48.5896 19.5419 48.7588 19.7176L48.8368 19.8367L48.8865 19.5187C48.8938 19.4728 48.9171 19.431 48.9522 19.4009C48.9874 19.3708 49.032 19.3542 49.0781 19.3542H50.1957C50.2248 19.3535 50.2537 19.3593 50.2803 19.3712C50.3069 19.3832 50.3305 19.401 50.3494 19.4233C50.3676 19.4445 50.3811 19.4695 50.3889 19.4964C50.3966 19.5234 50.3985 19.5517 50.3944 19.5794L49.7841 23.406C49.7722 23.4826 49.7332 23.5524 49.6744 23.6025C49.6155 23.6526 49.5407 23.6797 49.4636 23.6788H48.4572C48.4289 23.6788 48.4009 23.6727 48.3752 23.6608C48.3494 23.6488 48.3266 23.6314 48.3082 23.6097C48.2902 23.5886 48.277 23.5638 48.2694 23.5371C48.2619 23.5103 48.2602 23.4823 48.2645 23.4548L48.3141 23.1462C47.9021 23.5559 47.3461 23.7849 46.7673 23.7836V23.7836ZM47.7039 20.4407C47.4008 20.4351 47.1061 20.5408 46.8747 20.7382C46.6434 20.9355 46.4913 21.2109 46.4468 21.5129C46.4165 21.6487 46.4165 21.7895 46.4468 21.9253C46.4771 22.061 46.5368 22.1883 46.6218 22.298C46.7171 22.401 46.8339 22.4815 46.9637 22.5336C47.0936 22.5857 47.2333 22.6082 47.3728 22.5994C47.6769 22.6073 47.9733 22.5024 48.2059 22.3048C48.4385 22.1072 48.591 21.8305 48.6346 21.5272C48.663 21.3895 48.6607 21.2471 48.628 21.1103C48.5953 20.9736 48.5329 20.8458 48.4454 20.7362C48.3506 20.6355 48.2351 20.557 48.1071 20.5059C47.979 20.4549 47.8414 20.4326 47.7039 20.4407V20.4407Z" fill="#2890C3"/>
<path d="M41.0092 23.6784H39.8124C39.784 23.6785 39.756 23.6723 39.7303 23.6604C39.7046 23.6485 39.6817 23.631 39.6634 23.6093C39.6448 23.5883 39.631 23.5634 39.623 23.5365C39.6151 23.5095 39.6131 23.4811 39.6172 23.4533L40.5633 17.468C40.5755 17.3913 40.6145 17.3215 40.6732 17.2713C40.732 17.221 40.8067 17.1936 40.8838 17.194H43.2183C43.5277 17.1647 43.8398 17.2028 44.1334 17.3056C44.427 17.4083 44.6953 17.5734 44.92 17.7897C45.0777 18.0026 45.1862 18.2482 45.2378 18.5087C45.2893 18.7692 45.2826 19.038 45.2181 19.2955C45.1941 19.6194 45.1056 19.9352 44.9578 20.2238C44.8099 20.5124 44.6058 20.7681 44.3576 20.9754C44.1094 21.1827 43.8222 21.3374 43.5133 21.4304C43.2043 21.5233 42.88 21.5525 42.5596 21.5162H41.8216C41.7447 21.5157 41.6701 21.543 41.6114 21.593C41.5526 21.643 41.5135 21.7125 41.5011 21.789L41.2339 23.4878C41.2251 23.5413 41.1977 23.59 41.1565 23.6249C41.1153 23.6599 41.063 23.6789 41.0092 23.6784V23.6784ZM42.1918 18.4902C42.1457 18.4896 42.101 18.5058 42.0658 18.5358C42.0306 18.5658 42.0073 18.6075 42.0002 18.6534L41.7459 20.2188H42.1007C42.7192 20.2188 43.359 20.2188 43.4867 19.3849C43.5162 19.2744 43.5208 19.1587 43.5004 19.0462C43.4799 18.9337 43.4348 18.8272 43.3685 18.7344C43.1627 18.4961 42.7653 18.4961 42.3443 18.4961L42.1918 18.4902Z" fill="#2890C3"/>
<path d="M39.4943 19.3538H38.3708C38.318 19.3536 38.2659 19.3664 38.2191 19.3911C38.1723 19.4158 38.1322 19.4517 38.1023 19.4955L36.5579 21.7781L35.9003 19.5849C35.8801 19.5182 35.8393 19.4598 35.7837 19.4182C35.7282 19.3766 35.6609 19.354 35.5917 19.3538H34.4859C34.4551 19.3537 34.4248 19.361 34.3973 19.3751C34.3699 19.3892 34.3462 19.4096 34.3282 19.4348C34.3101 19.4599 34.2983 19.489 34.2937 19.5197C34.289 19.5503 34.2917 19.5817 34.3015 19.6111L35.5385 23.2423L34.3748 24.8839C34.354 24.9131 34.3417 24.9474 34.3391 24.9832C34.3366 25.019 34.3439 25.0548 34.3603 25.0866C34.3768 25.1184 34.4016 25.1451 34.4321 25.1635C34.4626 25.182 34.4976 25.1916 34.5332 25.1913H35.6555C35.7079 25.1914 35.7595 25.1787 35.8061 25.1545C35.8526 25.1302 35.8926 25.095 35.9228 25.0519L39.6598 19.6588C39.6803 19.6291 39.6922 19.5943 39.6941 19.5583C39.696 19.5222 39.6879 19.4863 39.6707 19.4547C39.6535 19.423 39.6279 19.3967 39.5967 19.3789C39.5656 19.3611 39.5301 19.3524 39.4943 19.3538" fill="#28346A"/>
<path d="M30.1162 23.7835C29.8544 23.8005 29.5922 23.7582 29.3487 23.6599C29.1052 23.5616 28.8866 23.4097 28.7089 23.2153C28.5194 22.9768 28.3839 22.6995 28.3118 22.4028C28.2397 22.1061 28.2328 21.7971 28.2914 21.4974C28.3714 20.8839 28.6673 20.3196 29.1251 19.9071C29.583 19.4946 30.1726 19.2612 30.7868 19.2494C31.0281 19.2192 31.273 19.2458 31.5024 19.327C31.7318 19.4083 31.9394 19.5419 32.1089 19.7175L32.1858 19.8367L32.2354 19.5186C32.2428 19.4727 32.2661 19.431 32.3012 19.4008C32.3363 19.3707 32.3809 19.3542 32.427 19.3542H33.5446C33.5737 19.3534 33.6026 19.3592 33.6292 19.3712C33.6558 19.3831 33.6795 19.4009 33.6983 19.4233C33.7166 19.4445 33.73 19.4694 33.7378 19.4964C33.7455 19.5233 33.7474 19.5516 33.7433 19.5793L33.133 23.4059C33.1211 23.4826 33.0821 23.5524 33.0233 23.6025C32.9644 23.6526 32.8896 23.6796 32.8126 23.6787H31.8062C31.7778 23.6788 31.7498 23.6726 31.7241 23.6607C31.6984 23.6488 31.6755 23.6313 31.6572 23.6096C31.6392 23.5885 31.6259 23.5638 31.6184 23.537C31.6108 23.5103 31.6091 23.4822 31.6134 23.4547L31.6631 23.1462C31.2511 23.5558 30.6951 23.7849 30.1162 23.7835V23.7835ZM31.0528 20.4407C30.7498 20.4351 30.455 20.5408 30.2237 20.7381C29.9923 20.9354 29.8402 21.2108 29.7957 21.5129C29.7656 21.6486 29.7657 21.7894 29.796 21.9252C29.8263 22.0609 29.8859 22.1882 29.9708 22.298C30.066 22.401 30.1828 22.4814 30.3127 22.5335C30.4425 22.5856 30.5822 22.6081 30.7217 22.5994C31.0259 22.6072 31.3223 22.5024 31.5548 22.3048C31.7874 22.1072 31.9399 21.8305 31.9836 21.5272C32.0119 21.3894 32.0097 21.2471 31.977 21.1103C31.9442 20.9735 31.8819 20.8457 31.7943 20.7361C31.6995 20.6355 31.5841 20.5569 31.456 20.5059C31.3279 20.4548 31.1903 20.4326 31.0528 20.4407V20.4407Z" fill="#28346A"/>
<path d="M24.2753 23.6784H23.1613C23.1329 23.6785 23.1049 23.6723 23.0792 23.6604C23.0535 23.6485 23.0306 23.631 23.0123 23.6093C22.9937 23.5883 22.9799 23.5634 22.9719 23.5365C22.964 23.5095 22.962 23.4811 22.9661 23.4533L23.9122 17.468C23.9244 17.3913 23.9633 17.3215 24.0221 17.2713C24.0809 17.221 24.1556 17.1936 24.2327 17.194H26.5672C26.8766 17.1647 27.1887 17.2028 27.4823 17.3056C27.7759 17.4083 28.0442 17.5734 28.2689 17.7897C28.4266 18.0026 28.5351 18.2482 28.5867 18.5087C28.6382 18.7692 28.6315 19.038 28.5669 19.2955C28.543 19.6194 28.4545 19.9352 28.3067 20.2238C28.1588 20.5124 27.9547 20.7681 27.7065 20.9754C27.4583 21.1827 27.1711 21.3374 26.8622 21.4304C26.5532 21.5233 26.2289 21.5525 25.9085 21.5162H25.1705C25.0936 21.5157 25.019 21.543 24.9603 21.593C24.9015 21.643 24.8624 21.7125 24.85 21.789L24.5958 23.4044C24.5836 23.4811 24.5446 23.5509 24.4858 23.6012C24.4271 23.6514 24.3524 23.6788 24.2753 23.6784V23.6784ZM25.5371 18.4902C25.491 18.4896 25.4463 18.5058 25.4111 18.5358C25.3759 18.5658 25.3526 18.6075 25.3455 18.6534L25.0948 20.2188H25.4496C26.0681 20.2188 26.7079 20.2188 26.8356 19.3849C26.865 19.2744 26.8697 19.1587 26.8492 19.0462C26.8288 18.9337 26.7837 18.8272 26.7174 18.7344C26.5116 18.4961 26.1142 18.4961 25.6932 18.4961L25.5371 18.4902Z" fill="#28346A"/>
<path d="M17.9377 15.1523C17.587 14.8424 17.1762 14.6091 16.7315 14.4672C16.2867 14.3253 15.8176 14.2779 15.3537 14.3279H11.9667C11.8525 14.329 11.7424 14.3707 11.6558 14.4457C11.5693 14.5207 11.5118 14.6241 11.4937 14.7377L10.0746 23.7048C10.068 23.7466 10.0706 23.7892 10.0821 23.8299C10.0935 23.8705 10.1136 23.9082 10.141 23.9402C10.1683 23.9723 10.2022 23.998 10.2403 24.0156C10.2785 24.0331 10.32 24.0421 10.3619 24.042H12.4563L12.9814 20.7063L12.9648 20.8111C12.9828 20.6974 13.0401 20.5939 13.1268 20.5188C13.2134 20.4438 13.3236 20.4021 13.4379 20.4013H14.4313C15.3586 20.5092 16.2908 20.2445 17.0258 19.6647C17.7607 19.0849 18.2392 18.2366 18.3575 17.3038C18.3709 17.2355 18.3823 17.1692 18.3918 17.1049C18.4782 16.7667 18.482 16.4124 18.4029 16.0724C18.3238 15.7324 18.1642 15.4167 17.9377 15.1523" fill="#28346A"/>
<path d="M18.3883 17.0763C18.3776 17.1406 18.367 17.2061 18.354 17.2741C18.232 18.2022 17.7533 19.0451 17.0208 19.6214C16.2884 20.1977 15.3607 20.4615 14.4372 20.356H13.4403C13.3261 20.3566 13.2159 20.398 13.1293 20.4728C13.0426 20.5477 12.9852 20.6511 12.9672 20.7646L12.3085 24.8985C12.3029 24.935 12.3051 24.9722 12.3152 25.0076C12.3252 25.0431 12.3427 25.0759 12.3665 25.1039C12.3904 25.1319 12.4199 25.1543 12.4532 25.1697C12.4865 25.185 12.5226 25.1929 12.5592 25.1928H14.319C14.4196 25.1933 14.517 25.1575 14.5938 25.092C14.6705 25.0264 14.7215 24.9355 14.7376 24.8354L14.7553 24.7461L15.0865 22.6446L15.1077 22.5254C15.1238 22.4254 15.1748 22.3344 15.2516 22.2689C15.3283 22.2033 15.4258 22.1676 15.5264 22.168H15.7901C16.5987 22.2626 17.4118 22.0328 18.0535 21.5283C18.6953 21.0238 19.1142 20.2852 19.2197 19.4721C19.3219 19.1301 19.3431 18.7686 19.2815 18.4169C19.2199 18.0651 19.0772 17.7329 18.8649 17.4468C18.7295 17.2954 18.568 17.1699 18.3883 17.0763" fill="#2890C3"/>
<path d="M17.9212 16.8894C17.8526 16.8695 17.7824 16.8516 17.7107 16.8358C17.6385 16.8203 17.564 16.806 17.4872 16.7941C17.1976 16.7494 16.905 16.7278 16.612 16.7297H13.9618C13.8613 16.7295 13.7639 16.7654 13.6872 16.8309C13.6105 16.8963 13.5595 16.9872 13.5432 17.0871L12.9802 20.6611L12.9637 20.7636C12.9816 20.65 13.0391 20.5466 13.1257 20.4717C13.2124 20.3969 13.3226 20.3555 13.4367 20.3549H14.4289C15.3537 20.4643 16.2841 20.2024 17.0185 19.6257C17.7529 19.0491 18.2323 18.2043 18.3528 17.2742C18.3658 17.2063 18.3777 17.1407 18.3871 17.0764C18.2693 17.0147 18.1467 16.9629 18.0205 16.9215L17.9212 16.8894Z" fill="#1F274F"/>
</svg>
