<svg width="80" height="80" viewBox="0 0 80 80" fill="none" xmlns="http://www.w3.org/2000/svg">
  <path fill-rule="evenodd" clip-rule="evenodd" d="M31.2844 13.3231C33.1565 12.9177 35.0934 12.6938 37.0802 12.6938C39.9003 12.6938 42.6207 13.1237 45.1795 13.9166L46.6123 14.3606L47.5003 11.495L46.0675 11.051C43.2263 10.1706 40.2067 9.69379 37.0802 9.69379C34.867 9.69379 32.7172 9.94325 30.6493 10.3911L29.1833 10.7086L29.8183 13.6406L31.2844 13.3231ZM57.2996 17.4053L58.3655 18.4607C61.9349 21.9951 64.6469 26.4024 66.1212 31.359L66.5488 32.7967L63.6733 33.652L63.2457 32.2143C61.92 27.7574 59.4786 23.7848 56.2547 20.5925L55.1888 19.5371L57.2996 17.4053ZM17.5309 20.9503L18.5777 19.876L16.429 17.7824L15.3822 18.8568C11.657 22.6802 8.95309 27.4854 7.65226 32.843L7.29834 34.3006L10.2136 35.0085L10.5676 33.5508C11.7401 28.7218 14.1762 24.3936 17.5309 20.9503ZM46.0675 68.9498L47.5003 68.5058L46.6123 65.6403L45.1795 66.0842C42.6207 66.8772 39.9003 67.307 37.0802 67.307C35.0934 67.307 33.1565 67.0832 31.2844 66.6777L29.8183 66.3602L29.1833 69.2922L30.6493 69.6097C32.7172 70.0576 34.867 70.307 37.0802 70.307C40.2067 70.307 43.2263 69.8302 46.0675 68.9498ZM10.2171 44.9919L10.571 46.4495C11.7435 51.2786 14.1796 55.6068 17.5344 59.05L18.5811 60.1244L16.4324 62.2179L15.3856 61.1436C11.6604 57.3201 8.95651 52.515 7.65568 47.1574L7.30176 45.6997L10.2171 44.9919ZM66.1215 48.6399L66.5482 47.2018L63.6721 46.3484L63.2454 47.7864C61.9233 52.242 59.4791 56.2145 56.2547 59.4072L55.1888 60.4627L57.2996 62.5944L58.3655 61.539C61.9344 58.0051 64.6503 53.5976 66.1215 48.6399Z" fill="url(#paint0_linear_8126_25971)"/>
  <path d="M71.7796 34.1074C75.0339 37.3617 75.0339 42.6381 71.7796 45.8925C68.5252 49.1468 63.2489 49.1468 59.9945 45.8925C56.7401 42.6381 56.7401 37.3617 59.9945 34.1074C63.2489 30.853 68.5252 30.853 71.7796 34.1074" stroke="#E1E1E6" stroke-width="3" stroke-linecap="round" stroke-linejoin="round"/>
  <path d="M29.4229 58.564C32.6773 61.8183 32.6773 67.0947 29.4229 70.3491C26.1685 73.6034 20.8922 73.6034 17.6378 70.3491C14.3834 67.0947 14.3834 61.8183 17.6378 58.564C20.8922 55.3096 26.1685 55.3096 29.4229 58.564" stroke="#E1E1E6" stroke-width="3" stroke-linecap="round" stroke-linejoin="round"/>
  <path d="M29.4229 9.65098C32.6773 12.9054 32.6773 18.1817 29.4229 21.4361C26.1685 24.6905 20.8922 24.6905 17.6378 21.4361C14.3834 18.1817 14.3834 12.9053 17.6378 9.65098C20.8922 6.39661 26.1685 6.39661 29.4229 9.65098" stroke="#E1E1E6" stroke-width="3" stroke-linecap="round" stroke-linejoin="round"/>
  <defs>
    <linearGradient id="paint0_linear_8126_25971" x1="36.9236" y1="9.69379" x2="36.9236" y2="70.307" gradientUnits="userSpaceOnUse">
      <stop stop-color="#00B37E"/>
      <stop offset="1" stop-color="#065F46"/>
    </linearGradient>
  </defs>
</svg>
