<svg width="261" height="250" fill="none" xmlns="http://www.w3.org/2000/svg" class="styles_stamp__3tOk3"><path d="M246.509 87.387c-4.143-12.67-2.895-28.224-10.614-38.801-7.776-10.633-23.045-14.197-33.772-22.002-10.614-7.693-18.674-21.098-31.445-25.227C167.669.396 164.491 0 161.199 0c-9.876 0-20.547 3.394-30.764 3.394C120.218 3.394 109.547 0 99.671 0c-3.292 0-6.47.396-9.536 1.357-12.714 4.13-20.83 17.534-31.445 25.227-10.728 7.749-25.996 11.312-33.772 22.002-7.72 10.577-6.471 26.131-10.614 38.8C10.33 99.662 0 111.426 0 125c0 13.575 10.33 25.339 14.304 37.613 4.143 12.67 2.894 28.224 10.614 38.801 7.776 10.69 23.101 14.253 33.772 22.002 10.614 7.693 18.674 21.098 31.445 25.227 3.065.961 6.244 1.357 9.536 1.357 9.876 0 20.547-3.394 30.764-3.394 10.217 0 20.888 3.394 30.764 3.394 3.292 0 6.47-.396 9.535-1.357 12.715-4.129 20.831-17.534 31.446-25.227 10.727-7.749 25.996-11.312 33.772-22.002 7.719-10.577 6.471-26.131 10.614-38.801 3.973-12.217 14.304-24.038 14.304-37.613-.057-13.575-10.388-25.34-14.361-37.613Z" fill="#015F43"/><path d="M217.194 96.834c-3.096-9.483-2.163-21.126-7.932-29.042-5.811-7.96-17.221-10.626-25.237-16.469-7.932-5.757-13.955-15.79-23.499-18.881-2.248-.72-4.623-1.016-7.083-1.016-7.381 0-15.355 2.54-22.99 2.54-7.635 0-15.609-2.54-22.99-2.54-2.46 0-4.835.296-7.126 1.016-9.5 3.09-15.566 13.124-23.498 18.881-8.017 5.8-19.427 8.467-25.238 16.469-5.768 7.916-4.835 19.559-7.932 29.042-2.969 9.187-10.688 17.992-10.688 28.153 0 10.16 7.72 18.966 10.688 28.153 3.097 9.483 2.164 21.125 7.932 29.042 5.811 8.001 17.264 10.668 25.238 16.468 7.932 5.758 13.955 15.791 23.498 18.882 2.291.719 4.666 1.016 7.126 1.016 7.381 0 15.355-2.54 22.99-2.54 7.635 0 15.609 2.54 22.99 2.54 2.46 0 4.835-.297 7.125-1.016 9.502-3.091 15.567-13.124 23.499-18.882 8.017-5.8 19.427-8.467 25.238-16.468 5.768-7.917 4.835-19.559 7.932-29.042 2.969-9.145 10.688-17.993 10.688-28.153-.042-10.161-7.762-18.966-10.731-28.153ZM130.453 208.64c-46.319 0-83.815-37.466-83.815-83.654 0-46.188 37.496-83.655 83.815-83.655 46.318 0 83.814 37.467 83.814 83.655s-37.538 83.654-83.814 83.654Z" fill="#00B37E"/><path opacity=".57" d="M130.46 213.051c48.726 0 88.226-39.425 88.226-88.059 0-48.633-39.5-88.058-88.226-88.058s-88.226 39.425-88.226 88.058c0 48.634 39.5 88.059 88.226 88.059Z" fill="url(#a)"/><path d="m79.853 121.227 1.4 2.288 2.63.636-1.74 2.077.213 2.712-2.503-1.017-2.545 1.017.212-2.712-1.739-2.077 2.63-.636 1.442-2.288ZM181.056 121.227l1.4 2.288 2.63.636-1.739 2.077.212 2.712-2.503-1.017-2.502 1.017.169-2.712-1.739-2.077 2.63-.636 1.442-2.288ZM92.248 137.239H67.434a.563.563 0 0 1-.551-.556c0-.299.254-.556.551-.556H92.29c.297 0 .551.257.551.556 0 .3-.254.556-.593.556ZM92.248 113.993H67.434a.564.564 0 0 1-.551-.556c0-.299.254-.556.551-.556H92.29c.297 0 .551.257.551.556 0 .299-.254.556-.593.556ZM193.489 137.239h-24.856a.564.564 0 0 1-.551-.556c0-.299.255-.556.551-.556h24.856c.297 0 .552.257.552.556 0 .3-.255.556-.552.556ZM193.489 113.994h-24.856a.564.564 0 0 1-.551-.556c0-.3.255-.556.551-.556h24.856c.297 0 .552.256.552.556a.565.565 0 0 1-.552.556Z" fill="#00B37E"/><path d="M90.247 162.791a5.158 5.158 0 0 0-1.357-1.058 3.736 3.736 0 0 0-1.442-.423c-.51-.043-.976 0-1.443.169-.466.169-.933.466-1.357.847a3.782 3.782 0 0 0-.933 1.27 3.129 3.129 0 0 0-.297 1.354c0 .466.127.932.34 1.397.211.466.55.932.975 1.355.636.677 1.315 1.016 2.078 1.101.552.042 1.103-.085 1.654-.339-.084.085-.212.127-.296.212-.255.169-.51.381-.721.55-.213.169-.425.381-.594.508l.763.804 2.503-2.37-2.672-2.837-.637.635 1.697 1.778a2.09 2.09 0 0 1-.89.17c-.34 0-.68-.085-1.061-.254a4.017 4.017 0 0 1-1.018-.762c-.424-.466-.679-.889-.849-1.313a2.16 2.16 0 0 1 0-1.27c.128-.423.382-.762.764-1.143.382-.338.806-.592 1.23-.677.467-.085.89-.085 1.357.085.467.169.891.465 1.273.889.297.338.551.677.679.973.127.297.212.635.17.974a2.204 2.204 0 0 1-.298.889l.806.847c.382-.424.594-.847.636-1.355.085-.508 0-1.016-.212-1.524-.042-.466-.381-.974-.848-1.482ZM92.285 174.535l1.145.763 1.527-.975 2.885 1.95-.34 1.78 1.146.763 1.357-7.673-1.145-.763-6.575 4.155Zm3.606-.89 2.757-1.781-.637 3.222-2.12-1.441ZM111.922 177.37c-.297-.297-.721-.508-1.187-.72l-3.945-1.566-2.63 6.602 1.188.466 1.018-2.539 2.333.931c.424.169.721.338.933.465.212.127.297.296.339.508.043.169 0 .381-.127.635l-.636 1.523 1.187.466.637-1.609c.169-.38.169-.677.127-.931-.085-.253-.255-.465-.509-.677a2.688 2.688 0 0 0-.594-.338c.17.042.297.042.467.084.254.043.509 0 .763-.042.255-.042.467-.169.636-.338.17-.17.34-.424.467-.72.17-.465.212-.846.127-1.227-.085-.381-.297-.677-.594-.973Zm-.763 1.777c-.127.339-.34.55-.636.677-.297.127-.637.085-1.061-.085l-2.799-1.1.848-2.073 2.8 1.1c.424.169.678.381.805.635.128.254.17.55.043.846ZM120.574 179.389l-4.242 6.473 1.357.211.976-1.523 3.436.593.424 1.734 1.357.212-1.951-7.531-1.357-.169Zm-1.315 4.188 1.781-2.792.764 3.215-2.545-.423ZM135.923 180.034l.297 5.381-5.26-5.126-1.272.084.381 7.076 1.273-.042-.297-5.339 5.259 5.085 1.273-.085-.382-7.118-1.272.084ZM148.487 177.362l-6.659 1.82.297 1.058 2.715-.762 1.611 5.798 1.188-.339-1.569-5.798 2.714-.719-.297-1.058ZM154.276 174.882l-1.155.534 3.001 6.468 1.155-.534-3.001-6.468ZM167.444 170.892a4.067 4.067 0 0 0-.933-.973 3.059 3.059 0 0 0-1.188-.551c-.424-.084-.933-.042-1.484.085-.552.127-1.103.423-1.739.889l-2.842 1.989 4.072 5.799 2.842-1.989c.593-.424 1.06-.847 1.357-1.312.297-.466.509-.889.551-1.355.085-.466.043-.889-.084-1.354a2.901 2.901 0 0 0-.552-1.228Zm-.509 2.455c-.042.296-.17.635-.382.931-.212.339-.551.635-.975.931l-1.782 1.27-2.799-3.978 1.781-1.27c.425-.297.849-.508 1.23-.593.382-.085.721-.127 1.018-.042.297.084.552.169.806.381.255.169.467.381.637.635.169.254.339.55.424.846.042.296.042.593.042.889ZM178.009 165.521l.934-1.016-7.381-2.498-.933 1.016 3.096 7.113.933-1.016-.721-1.651 2.376-2.583 1.696.635Zm-4.581.889-1.357-3.006 3.096 1.101-1.739 1.905ZM87.235 89.426c-.297-.212-.551-.338-.848-.38-.297-.043-.552 0-.806.084-.255.085-.551.254-.806.423-.254.17-.551.424-.806.678-.34.296-.594.55-.848.72-.255.17-.424.338-.594.423-.17.085-.34.127-.466.127a.685.685 0 0 1-.382-.127c-.297-.212-.382-.466-.34-.804.043-.34.213-.678.467-1.06.297-.38.636-.677.975-.804.34-.127.722-.084 1.146.17l.72-.974c-.593-.466-1.23-.593-1.866-.466-.636.127-1.272.593-1.823 1.355-.382.508-.637.974-.721 1.44-.085.466-.128.847 0 1.228.127.38.339.677.678.89.297.21.552.295.848.338.297 0 .594-.043.891-.127.297-.085.594-.297.891-.508.297-.212.594-.424.848-.72.34-.297.637-.55.849-.762.254-.17.466-.297.636-.34.17-.041.34 0 .509.128.17.127.297.296.34.466.042.169.042.423 0 .635a2.967 2.967 0 0 1-.425.804c-.254.34-.509.593-.806.763-.297.169-.594.296-.89.296-.297 0-.552-.042-.806-.17l-.764 1.017c.127.127.297.212.509.296.212.085.467.127.763.127.297 0 .594-.042.891-.127.34-.084.636-.254.976-.508.34-.254.636-.55.975-.974.425-.55.68-1.058.764-1.524a2.001 2.001 0 0 0-.043-1.228c-.084-.254-.339-.55-.636-.805ZM89.313 79.729l2.417 7.537 1.06-.932-.593-1.736 2.672-2.371 1.654.804 1.06-.931-7.252-3.303-1.019.932Zm2.502 3.726-1.06-3.176 3.054 1.44-1.994 1.736ZM103.437 71.277l-.551-.973-6.066 3.512.552.973 2.46-1.439 3.096 5.332 1.103-.677-3.054-5.29 2.46-1.438ZM110.121 67.34l-1.234.451 2.465 6.801 1.234-.451-2.465-6.801ZM123.332 68.651a1.88 1.88 0 0 0-.637-.508 2.739 2.739 0 0 0-.89-.254c-.34-.042-.679-.084-1.061-.084-.424 0-.806-.043-1.102-.043a8.019 8.019 0 0 1-.722-.127c-.169-.042-.296-.127-.424-.211-.085-.085-.127-.212-.169-.339-.043-.338.042-.635.297-.804.254-.212.636-.339 1.06-.423a2.535 2.535 0 0 1 1.272.084c.34.127.594.466.679.89l1.23-.212c-.127-.762-.466-1.27-1.018-1.609-.594-.338-1.315-.423-2.29-.254-.637.127-1.146.297-1.527.55-.382.255-.679.55-.849.89-.169.338-.212.719-.127 1.1.043.338.17.635.382.846.212.212.466.381.763.508s.637.212.976.254c.339.042.721.085 1.103.085.466 0 .848 0 1.145.042.297.042.509.085.679.17.169.084.254.253.297.465a.93.93 0 0 1-.085.592c-.085.17-.255.339-.467.466-.212.127-.509.211-.891.296-.424.085-.763.085-1.102 0-.34-.085-.637-.17-.849-.381a1.505 1.505 0 0 1-.466-.677l-1.273.212c0 .169.043.338.17.55.085.211.254.423.466.592.213.212.467.381.764.508s.636.254 1.06.296c.382.043.849.043 1.358-.042.678-.127 1.23-.296 1.611-.55.382-.254.679-.55.806-.889.17-.339.17-.72.128-1.143 0-.338-.128-.634-.297-.846ZM129.223 71.096l1.272.043.127-3.006 4.2.127.042-1.059-4.242-.127.085-2.074 5.133.127.042-1.1-6.447-.212-.212 7.281ZM144.027 65.393l-4.793 6.305 1.358.339 1.103-1.481 3.478.846.297 1.82 1.357.338-1.442-7.829-1.358-.338Zm-1.654 4.19 1.994-2.71.551 3.302-2.545-.593ZM159.555 71.412c-.382-.424-.891-.805-1.569-1.143a5.08 5.08 0 0 0-1.655-.55c-.551-.085-1.06-.085-1.527.042-.466.127-.933.339-1.315.677a4.713 4.713 0 0 0-1.018 1.312c-.254.55-.424 1.058-.424 1.566-.042.508.085.974.255 1.44.212.465.509.846.891 1.227.254.254.551.466.89.677l-.254.508c.169.17.297.296.382.423.042.127.084.212.084.297 0 .084-.042.169-.042.211a.432.432 0 0 1-.255.212.514.514 0 0 1-.424-.042c-.169-.085-.254-.17-.297-.254-.042-.085-.084-.17-.084-.254v-.212l-.806-.423c-.128.17-.17.423-.17.635 0 .254.085.465.254.677.17.212.382.423.679.55.467.254.891.296 1.23.212.34-.085.594-.254.721-.55.085-.212.128-.381.128-.55 0-.17-.085-.34-.17-.509-.043-.042-.085-.127-.127-.169l.169-.338c.467.211.933.296 1.4.338.594.042 1.103-.042 1.569-.254.467-.212.849-.55 1.188-1.016l-1.145-.55c-.255.254-.509.423-.806.508-.297.127-.636.127-1.018.085-.339-.043-.721-.17-1.145-.339a3.925 3.925 0 0 1-1.23-.931c-.297-.381-.509-.804-.552-1.27-.042-.466.043-.931.297-1.44.255-.507.594-.888.976-1.142.381-.254.848-.338 1.315-.338.509 0 .975.169 1.484.38.382.212.721.424.976.678.254.254.424.55.509.846.085.297.127.635.042.974l1.145.55c.212-.55.255-1.058.128-1.566-.043-.254-.297-.762-.679-1.185ZM161.676 80.9l1.06.89 1.612-.848 2.757 2.287-.509 1.778 1.103.89 2.121-7.665-1.061-.89-7.083 3.558Zm3.775-.55 2.969-1.567-.933 3.218-2.036-1.652ZM171.985 76.82c-.084.042-.169.128-.296.17a.8.8 0 0 1-.34.085c-.127 0-.212-.042-.339-.17a.668.668 0 0 1-.255-.341c-.042-.128-.127-.298-.169-.469a1.616 1.616 0 0 0-.212-.469c-.085-.17-.212-.298-.382-.469-.212-.17-.467-.298-.721-.298-.255 0-.509.043-.721.128-.255.085-.467.256-.679.426l.721.597c.085-.043.212-.128.297-.17a.795.795 0 0 1 .339-.086c.128 0 .212.043.34.17.127.128.212.256.297.384.042.128.127.298.169.469.043.17.128.298.212.469.085.17.212.298.382.426.212.17.467.299.721.299.255 0 .509 0 .721-.128.255-.086.467-.256.679-.427l-.764-.596ZM180.212 89.89c-.127-.677-.466-1.354-1.018-2.074-.509-.677-1.103-1.185-1.739-1.523-.636-.339-1.272-.466-1.951-.381a3.794 3.794 0 0 0-1.909.804c-.636.465-1.06 1.016-1.272 1.608a3.053 3.053 0 0 0-.127 1.947c.127.677.466 1.397 1.018 2.074.551.677 1.102 1.185 1.739 1.524.636.296 1.272.423 1.908.38.637-.041 1.315-.338 1.909-.803.636-.466 1.06-1.016 1.273-1.651.254-.593.296-1.228.169-1.905Zm-1.315 1.355a2.692 2.692 0 0 1-.933 1.185c-.466.338-.933.55-1.4.592a2.083 2.083 0 0 1-1.314-.296 4.3 4.3 0 0 1-1.146-1.016 3.704 3.704 0 0 1-.678-1.354c-.128-.466-.085-.931.042-1.355.17-.423.467-.846.933-1.185.467-.338.933-.55 1.4-.592.466-.043.891.084 1.315.296a4.3 4.3 0 0 1 1.145 1.016c.339.465.594.889.679 1.354.127.466.127.89-.043 1.355ZM121.75 99.638v29.467h-6.277v-22.267l-6.778 2.083v-4.895l12.433-4.388h.622ZM136.528 115.837l-4.973-1.193 1.705-14.986h16.724v4.995h-11.591l-.702 6.209c.361-.215.93-.451 1.705-.708.775-.269 1.644-.404 2.607-.404 1.43 0 2.7.222 3.81.667a7.42 7.42 0 0 1 2.807 1.942c.776.836 1.357 1.867 1.745 3.094.401 1.227.601 2.623.601 4.187 0 1.294-.2 2.534-.601 3.721a9.14 9.14 0 0 1-1.845 3.155c-.816.917-1.852 1.645-3.108 2.184-1.257.54-2.734.809-4.432.809-1.283 0-2.527-.195-3.73-.586a10.695 10.695 0 0 1-3.248-1.699 8.471 8.471 0 0 1-2.266-2.751c-.548-1.078-.829-2.292-.842-3.64h6.256c.067.782.261 1.456.582 2.022.32.553.755.985 1.303 1.295.548.296 1.183.445 1.905.445.695 0 1.283-.135 1.765-.405a3.137 3.137 0 0 0 1.143-1.153 5.314 5.314 0 0 0 .641-1.698c.134-.648.201-1.342.201-2.084 0-.768-.087-1.456-.261-2.062-.174-.621-.441-1.147-.802-1.578a3.396 3.396 0 0 0-1.384-1.011c-.548-.243-1.209-.364-1.985-.364-1.016 0-1.811.168-2.386.505-.575.337-1.023.701-1.344 1.092ZM115.764 150.205h-2.445l.016-1.852h2.429c.607 0 1.119-.14 1.535-.419.417-.285.731-.699.942-1.242.216-.544.323-1.2.323-1.97v-.562c0-.591-.061-1.11-.185-1.559a3.122 3.122 0 0 0-.532-1.131 2.227 2.227 0 0 0-.872-.688 2.801 2.801 0 0 0-1.187-.238h-2.515v-1.859h2.515c.75 0 1.437.132 2.059.396.628.258 1.17.63 1.628 1.115.457.485.81 1.066 1.056 1.741.252.67.378 1.416.378 2.239v.546c0 .817-.126 1.564-.378 2.239a5 5 0 0 1-1.056 1.74c-.453.48-.995.852-1.628 1.116a5.423 5.423 0 0 1-2.083.388Zm-1.133-11.52v11.52h-2.315v-11.52h2.315ZM125.052 138.685v11.52h-2.307v-11.52h2.307ZM131.925 140.655l-3.055 9.55h-2.461l4.173-11.52h1.566l-.223 1.97Zm2.537 9.55-3.062-9.55-.247-1.97h1.582l4.196 11.52h-2.469Zm-.138-4.289v1.86h-5.932v-1.86h5.932ZM143.819 147.19c0-.206-.031-.39-.092-.554a1.062 1.062 0 0 0-.324-.459 2.89 2.89 0 0 0-.672-.419 9.32 9.32 0 0 0-1.118-.427 14.02 14.02 0 0 1-1.45-.57 5.912 5.912 0 0 1-1.204-.736 3.286 3.286 0 0 1-.817-.988c-.196-.375-.293-.81-.293-1.306 0-.48.103-.915.308-1.305a2.99 2.99 0 0 1 .864-1.013 4.06 4.06 0 0 1 1.312-.657 5.794 5.794 0 0 1 1.673-.229c.828 0 1.551.153 2.168.459.617.306 1.095.725 1.435 1.258.344.532.517 1.142.517 1.827h-2.299c0-.337-.07-.633-.208-.886a1.432 1.432 0 0 0-.618-.609c-.272-.148-.617-.222-1.033-.222-.401 0-.736.064-1.003.19a1.355 1.355 0 0 0-.602.499c-.133.205-.2.438-.2.696 0 .195.046.372.139.53.097.158.241.306.432.443.19.137.424.266.702.388.277.121.599.24.964.356.612.19 1.149.403 1.612.641.468.237.859.503 1.172.799.314.295.551.63.71 1.005.16.374.239.799.239 1.273 0 .501-.095.95-.285 1.345a2.74 2.74 0 0 1-.826 1.005c-.36.274-.789.483-1.288.625a6.072 6.072 0 0 1-1.674.214 6.19 6.19 0 0 1-1.643-.222 4.925 4.925 0 0 1-1.473-.688 3.434 3.434 0 0 1-1.049-1.171c-.262-.475-.393-1.036-.393-1.685h2.321c0 .358.054.662.162.91.108.248.26.448.456.601.2.153.437.264.709.332.278.069.581.103.91.103.402 0 .731-.058.988-.174.262-.116.455-.277.578-.483.129-.205.193-.437.193-.696Z" fill="#fff"/><defs><radialGradient id="a" cx="0" cy="0" r="1" gradientUnits="userSpaceOnUse" gradientTransform="matrix(88.2198 0 0 88.0529 130.446 124.99)"><stop stop-color="#00B37E"/><stop offset="1" stop-color="#0ED161" stop-opacity="0"/></radialGradient></defs></svg>