<svg width="80" height="80" viewBox="0 0 80 80" fill="none" xmlns="http://www.w3.org/2000/svg">
  <path fill-rule="evenodd" clip-rule="evenodd" d="M16.6565 8.48681C12.1446 8.48682 8.48706 12.1444 8.48706 16.6563L8.48706 26.6604L8.48706 28.1604L11.4871 28.1604L11.4871 26.6604L11.4871 16.6563C11.4871 13.8013 13.8015 11.4868 16.6565 11.4868L33.3301 11.4868L34.8301 11.4868L34.8301 8.48681L33.3301 8.48681L16.6565 8.48681ZM71.5127 53.3315L71.5127 51.8315L68.5127 51.8315L68.5127 53.3315L68.5127 63.342C68.5127 66.197 66.1983 68.5114 63.3433 68.5114L46.6697 68.5114L45.1697 68.5114L45.1697 71.5114L46.6697 71.5114L63.3433 71.5114C67.8551 71.5114 71.5127 67.8538 71.5127 63.342L71.5127 53.3315Z" fill="url(#paint0_linear_8126_25961)"/>
  <path fill-rule="evenodd" clip-rule="evenodd" d="M33.3316 70.0117L11.6559 70.0117C10.735 70.0117 9.98853 69.2652 9.98853 68.3444L9.98853 66.9905C9.99952 63.1385 13.1194 60.0186 16.9714 60.0076L28.016 60.0076C31.868 60.0186 34.9879 63.1385 34.9989 66.9905L34.9989 68.3444C34.9989 69.2652 34.2524 70.0117 33.3316 70.0117Z" stroke="#E1E1E6" stroke-width="3" stroke-linecap="round" stroke-linejoin="round"/>
  <path fill-rule="evenodd" clip-rule="evenodd" d="M66.6765 39.9987L45.0009 39.9987C44.08 39.9987 43.3335 39.2522 43.3335 38.3313L43.3335 36.9774C43.3445 33.1254 46.4644 30.0055 50.3164 29.9945L61.361 29.9945C65.213 30.0055 68.3329 33.1254 68.3439 36.9774L68.3439 38.3313C68.3439 39.2522 67.5974 39.9987 66.6765 39.9987Z" stroke="#E1E1E6" stroke-width="3" stroke-linecap="round" stroke-linejoin="round"/>
  <path fill-rule="evenodd" clip-rule="evenodd" d="M22.4923 51.672C18.8115 51.6646 15.8325 48.6767 15.8362 44.9958C15.8399 41.315 18.8248 38.3331 22.5056 38.3331C26.1865 38.3331 29.1714 41.315 29.1751 44.9958C29.1787 48.6767 26.1998 51.6646 22.519 51.672L22.4923 51.672Z" stroke="#E1E1E6" stroke-width="3" stroke-linecap="round" stroke-linejoin="round"/>
  <path fill-rule="evenodd" clip-rule="evenodd" d="M55.8373 21.6577C52.1564 21.6503 49.1775 18.6624 49.1812 14.9816C49.1848 11.3007 52.1698 8.31879 55.8506 8.31879C59.5314 8.31878 62.5164 11.3007 62.52 14.9816C62.5237 18.6624 59.5448 21.6503 55.8639 21.6577L55.8373 21.6577Z" stroke="#E1E1E6" stroke-width="3" stroke-linecap="round" stroke-linejoin="round"/>
  <defs>
    <linearGradient id="paint0_linear_8126_25961" x1="39.9999" y1="8.48681" x2="39.9999" y2="71.5114" gradientUnits="userSpaceOnUse">
      <stop stop-color="#00B37E"/>
      <stop offset="1" stop-color="#065F46"/>
    </linearGradient>
  </defs>
</svg>
