<svg width="63" height="40" viewBox="0 0 63 40" fill="none" xmlns="http://www.w3.org/2000/svg"><path d="M56.9081 0H5.91302C2.64735 0 0 2.66688 0 5.95664V34.0434C0 37.3331 2.64735 40 5.91302 40H56.9081C60.1738 40 62.8212 37.3331 62.8212 34.0434V5.95664C62.8212 2.66688 60.1738 0 56.9081 0Z" fill="#E6E6E6"></path><path d="M51.0083 26.201C50.8776 26.2006 50.75 26.1611 50.6416 26.0876C50.5331 26.0141 50.4488 25.9098 50.3991 25.788C50.3495 25.6662 50.3368 25.5323 50.3627 25.4033C50.3886 25.2742 50.4518 25.1558 50.5445 25.0629C50.6372 24.9701 50.7551 24.907 50.8833 24.8816C51.0116 24.8563 51.1444 24.8697 51.265 24.9204C51.3857 24.9711 51.4887 25.0566 51.5611 25.1662C51.6335 25.2758 51.672 25.4046 51.6718 25.5363C51.6708 25.7129 51.6005 25.882 51.4762 26.0066C51.3519 26.1311 51.1837 26.201 51.0083 26.201ZM51.0083 25.0288C50.909 25.029 50.812 25.0589 50.7295 25.1146C50.6471 25.1703 50.5828 25.2494 50.5449 25.3419C50.507 25.4343 50.4972 25.5361 50.5166 25.6342C50.536 25.7323 50.5839 25.8224 50.6541 25.8931C50.7243 25.9638 50.8138 26.012 50.9112 26.0316C51.0085 26.0512 51.1095 26.0413 51.2013 26.0031C51.2931 25.9649 51.3716 25.9002 51.4269 25.8171C51.4822 25.734 51.5119 25.6363 51.5121 25.5363C51.5121 25.4017 51.459 25.2726 51.3646 25.1774C51.2701 25.0822 51.1419 25.0288 51.0083 25.0288ZM50.9184 25.8222H50.7824V25.2432H51.0284C51.0798 25.2381 51.1315 25.248 51.1774 25.2718C51.2006 25.2884 51.2195 25.3104 51.2324 25.3359C51.2454 25.3614 51.2521 25.3897 51.2519 25.4183C51.253 25.451 51.2439 25.4831 51.2258 25.5103C51.2078 25.5374 51.1818 25.5582 51.1514 25.5696L51.2567 25.8222H51.1065L51.0178 25.5958H50.9184V25.8222Z" fill="#0161AB"></path><path d="M41.9374 26.2456H38.5918L43.379 14.8672C43.4994 14.5776 43.7071 14.3335 43.9728 14.1693C44.2385 14.0051 44.5487 13.9292 44.8596 13.9523H47.4424L50.0134 26.2432H47.0652L46.6879 24.4193H42.6127L41.9386 26.2444L41.9374 26.2456ZM45.2144 17.2964L43.5327 21.8973H46.1687L45.2144 17.2964Z" fill="#0066B2"></path><path d="M38.8425 16.9075L39.3014 14.2675C38.3727 13.9368 37.3981 13.7559 36.4134 13.7314C34.8193 13.7314 31.0361 14.426 31.0361 17.801C31.0361 20.9771 35.4768 21.0176 35.4768 22.6855C35.4768 24.3533 31.4938 24.0531 30.1752 23.0012L29.7021 25.7638C30.8504 26.2431 32.0841 26.4795 33.3268 26.4584C35.517 26.4584 38.8236 25.3266 38.8236 22.2494C38.8236 19.0531 34.3427 18.7553 34.3427 17.365C34.3427 15.9747 37.4695 16.1534 38.8437 16.9087" fill="#0066B2"></path><path d="M27.7244 26.2443H24.5137L26.5241 13.9521H29.7313L27.7209 26.2443" fill="#0066B2"></path><path d="M20.1598 26.2443H16.8142L14.0256 15.5652C14.5169 15.858 14.9872 16.1853 15.4329 16.5445C16.7548 17.6059 17.7747 19.0004 18.3895 20.5866L18.7513 22.4106L21.8131 13.9521H25.2687L20.1598 26.2443ZM13.7324 15.3948C13.0076 14.9855 12.2457 14.6469 11.457 14.3834C12.2467 14.6443 13.0091 14.9823 13.7335 15.3925L13.7324 15.3948Z" fill="#0066B2"></path><path d="M18.3894 20.5867L17.3085 15.0589C17.2427 14.7137 17.0485 14.4069 16.7656 14.2012C16.4827 13.9955 16.1324 13.9064 15.7865 13.9522H10.7261L10.667 14.1595C12.407 14.5999 14.0324 15.4126 15.4329 16.5421C16.7577 17.6006 17.7783 18.996 18.3894 20.5843" fill="#F9A533"></path></svg>